<?xml version="1.0" encoding="UTF-8" standalone="no"?>
<!-- Created with Inkscape (http://www.inkscape.org/) -->

<svg
   xmlns:dc="http://purl.org/dc/elements/1.1/"
   xmlns:cc="http://creativecommons.org/ns#"
   xmlns:rdf="http://www.w3.org/1999/02/22-rdf-syntax-ns#"
   xmlns:svg="http://www.w3.org/2000/svg"
   xmlns="http://www.w3.org/2000/svg"
   xmlns:sodipodi="http://sodipodi.sourceforge.net/DTD/sodipodi-0.dtd"
   xmlns:inkscape="http://www.inkscape.org/namespaces/inkscape"
   width="210mm"
   height="297mm"
   viewBox="0 0 744.09448819 1052.3622047"
   id="svg4165"
   version="1.1"
   inkscape:version="0.91 r13725"
   sodipodi:docname="dummy.svg">
  <defs
     id="defs4167" />
  <sodipodi:namedview
     id="base"
     pagecolor="#ffffff"
     bordercolor="#666666"
     borderopacity="1.0"
     inkscape:pageopacity="0.0"
     inkscape:pageshadow="2"
     inkscape:zoom="0.35"
     inkscape:cx="-72.142857"
     inkscape:cy="520"
     inkscape:document-units="px"
     inkscape:current-layer="layer1"
     showgrid="false"
     inkscape:window-width="1600"
     inkscape:window-height="851"
     inkscape:window-x="0"
     inkscape:window-y="0"
     inkscape:window-maximized="1" />
  <metadata
     id="metadata4170">
    <rdf:RDF>
      <cc:Work
         rdf:about="">
        <dc:format>image/svg+xml</dc:format>
        <dc:type
           rdf:resource="http://purl.org/dc/dcmitype/StillImage" />
        <dc:title></dc:title>
      </cc:Work>
    </rdf:RDF>
  </metadata>
  <g
     inkscape:label="Layer 1"
     inkscape:groupmode="layer"
     id="layer1">
    <path
       style="fill:#000000;fill-opacity:1;stroke:none"
       d="m 641.69455,382.35039 0,-88.58267 c 0,0 -22.14285,22.1991 -35.43307,50.77053 -13.29021,28.57142 -17.71653,37.81214 -17.71653,37.81214 z"
       id="expression_TPM_Denton_MS1"
       inkscape:connector-curvature="0" />
    <path
       style="fill:#000000;fill-opacity:1;stroke:none"
       d="m 641.69455,382.35039 0,88.58268 -70.86614,0 c 0,0 4.28572,-26.39482 7.85715,-46.39482 3.57142,-20 9.85939,-42.18786 9.85939,-42.18786 z"
       id="expression_TPM_Denton_MS2"
       inkscape:connector-curvature="0"
       inkscape:label="#expression_TPM_Denton_MS2" />
    <path
       style="fill:#000000;fill-opacity:1;stroke:none"
       d="m 641.69455,559.51575 0,-88.58268 -70.86614,0 c 0,0 -2.14285,15.03375 0,46.46232 2.14286,31.42857 3.57143,42.12036 3.57143,42.12036 z"
       id="expression_TPM_Denton_MS3"
       inkscape:connector-curvature="0"
       inkscape:label="#Denton_2016.M.Slice_3" />
    <path
       style="fill:#000000;fill-opacity:1;stroke:none"
       d="m 641.69455,559.51575 0,88.58268 -35.43307,0 c 0,0 -14.0045,-14.82565 -21.86164,-42.8459 -7.85714,-28.02025 -10,-45.73678 -10,-45.73678 z"
       id="expression_TPM_Denton_MS4"
       inkscape:connector-curvature="0"
       inkscape:label="#Denton_2016.M.Slice_4" />
    <path
       style="fill:#000000;fill-opacity:1;stroke:none"
       d="m 641.69455,736.68112 0,-88.58269 -35.43307,0 10.28122,10.72553 4.28571,77.85716 z"
       id="expression_TPM_Denton_MS5"
       inkscape:connector-curvature="0"
       inkscape:label="#Denton_2016.M.Slice_5" />
    <path
       style="fill:#000000;fill-opacity:1;stroke:none"
       d="m 640.74217,382.35039 0,-88.58267 c 0,0 22.14285,22.1991 35.43307,50.77053 13.29021,28.57142 17.71653,37.81214 17.71653,37.81214 z"
       id="expression_TPM_Denton_BSS1"
       inkscape:connector-curvature="0" />
    <path
       style="fill:#000000;fill-opacity:1;stroke:none"
       d="m 640.74217,382.35039 0,88.58268 70.86614,0 c 0,0 -4.28571,-26.39482 -7.85714,-46.39482 -3.57143,-20 -9.8594,-42.18786 -9.8594,-42.18786 z"
       id="expression_TPM_Denton_BSS2"
       inkscape:connector-curvature="0" />
    <path
       style="fill:#000000;fill-opacity:1;stroke:none"
       d="m 640.74217,559.51575 0,-88.58268 70.86614,0 c 0,0 2.14286,15.03375 0,46.46232 -2.14286,31.42857 -3.57143,42.12036 -3.57143,42.12036 z"
       id="expression_TPM_Denton_BSS3"
       inkscape:connector-curvature="0" />
    <path
       style="fill:#000000;fill-opacity:1;stroke:none"
       d="m 640.74217,559.51575 0,88.58268 35.43307,0 c 0,0 14.0045,-14.82565 21.86164,-42.8459 7.85714,-28.02025 10,-45.73678 10,-45.73678 z"
       id="expression_TPM_Denton_BSS4"
       inkscape:connector-curvature="0" />
    <path
       style="fill:#000000;fill-opacity:1;stroke:none"
       d="m 640.74217,736.68112 0,-88.58269 35.43307,0 -10.28122,10.72553 -4.28571,77.85716 z"
       id="expression_TPM_Denton_BSS5"
       inkscape:connector-curvature="0" />
    <path
       style="fill:none;stroke:#ffffff;stroke-width:4;stroke-miterlimit:4;stroke-dasharray:none;stroke-opacity:1"
       d="m 641.6857,294.74557 c -4.31386,4.52133 -22.78789,24.66964 -34.46875,49.78125 -13.29021,28.57142 -17.71875,37.8125 -17.71875,37.8125 0,0 -6.30357,22.1875 -9.875,42.1875 -3.57142,20 -7.84375,46.40625 -7.84375,46.40625 0,0 -2.14286,15.04018 0,46.46875 2.14286,31.42857 3.5625,42.125 3.5625,42.125 0,0 2.14286,17.6985 10,45.71875 7.85714,28.02025 21.875,42.84375 21.875,42.84375 l 10.28125,10.71875 4.28125,77.87505 19.90625,0 0.96875,0 19.90625,0 4.28124,-77.87505 10.28125,-10.71875 c 0,0 14.01786,-14.8235 21.875,-42.84375 7.85714,-28.02025 10,-45.71875 10,-45.71875 0,0 1.41964,-10.69643 3.5625,-42.125 2.14286,-31.42857 0,-46.46875 0,-46.46875 0,0 -4.27232,-26.40625 -7.84375,-46.40625 -3.57143,-20 -9.875,-42.1875 -9.875,-42.1875 0,0 -4.42854,-9.24108 -17.71875,-37.8125 -11.68086,-25.11161 -30.15488,-45.25992 -34.46874,-49.78125 -0.29613,-1.16056 -0.96875,-1.28906 -0.96875,0 z"
       id="Edge_M"
       inkscape:connector-curvature="0"
       sodipodi:nodetypes="cscscscsccccccccscscscscc" />
    <text
       xml:space="preserve"
       style="color:#000000;font-style:normal;font-variant:normal;font-weight:bold;font-stretch:normal;font-size:48px;font-family:Arial;-inkscape-font-specification:Arial;text-align:start;text-anchor:start;display:inline;overflow:visible;visibility:visible;fill:#000000;fill-opacity:1;stroke:none;stroke-width:1;marker:none;enable-background:accumulate"
       x="585.89948"
       y="532.16388"
       id="text3887"><tspan
         sodipodi:role="line"
         id="tspan3889"
         x="585.89948"
         y="532.16388">M</tspan></text>
    <path
       style="fill:none;stroke:#ffffff;stroke-width:4;stroke-miterlimit:4;stroke-dasharray:none;stroke-opacity:1"
       d="m 641.69455,293.76772 c -0.81675,0.4511 -0.009,88.5716 -0.009,88.5716 l 0,88.59375 0,88.5625 0,88.59375 0,88.5938 20.875,0 4.28125,-77.87505 10.28125,-10.71875 c 0,0 13.98661,-14.82355 21.84375,-42.84375 7.85714,-28.0203 10,-45.75 10,-45.75 0,0 1.45089,-10.69644 3.59375,-42.125 2.14286,-31.42857 0,-46.4375 0,-46.4375 0,0 -4.30357,-26.40625 -7.875,-46.40625 -3.57143,-20 -9.84375,-42.1875 -9.84375,-42.1875 0,0 -4.42854,-9.24108 -17.71875,-37.8125 -13.29008,-28.57143 -34.61174,-51.2102 -35.4285,-50.7591 z"
       id="Edge_BS"
       inkscape:connector-curvature="0"
       sodipodi:nodetypes="zccccccccscscscsz" />
    <text
       xml:space="preserve"
       style="color:#000000;font-style:normal;font-variant:normal;font-weight:bold;font-stretch:normal;font-size:56px;font-family:Arial;-inkscape-font-specification:Arial;text-align:start;text-anchor:start;display:inline;overflow:visible;visibility:visible;fill:#000000;fill-opacity:1;stroke:none;stroke-width:4;marker:none;enable-background:accumulate"
       x="645.57971"
       y="532.08264"
       id="text3943"><tspan
         sodipodi:role="line"
         id="tspan3945"
         x="645.57971"
         y="532.08264"
         style="font-size:48px;fill:#000000">BS</tspan></text>
    <path
       style="fill:#000000;fill-opacity:1;stroke:none"
       d="m 137.40186,391.97445 0,-88.58267 c 0,0 -22.14285,22.1991 -35.43307,50.77053 -13.290208,28.57142 -17.716528,37.81214 -17.716528,37.81214 z"
       id="expression_TPM_Tausta_BSS4"
       inkscape:connector-curvature="0" />
    <path
       style="fill:#000000;fill-opacity:1;stroke:none"
       d="m 134.06463,401.39178 0,88.58268 -70.866138,0 c 0,0 4.28571,-26.39482 7.85714,-46.39482 3.57143,-20 9.85939,-42.18786 9.85939,-42.18786 z"
       id="expression_TPM_Tausta_BSS9"
       inkscape:connector-curvature="0"
       inkscape:label="#Tausta_2014.BS.Section_9" />
    <path
       style="fill:#000000;fill-opacity:1;stroke:none"
       d="m 135.73632,586.97446 0,-88.58268 -70.866138,0 c 0,0 -2.14286,15.03375 0,46.46232 2.14286,31.42857 3.57143,42.12036 3.57143,42.12036 z"
       id="expression_TPM_Tausta_MS4"
       inkscape:connector-curvature="0"
       inkscape:label="#expression_TPM_Tausta_MS4" />
    <path
       style="fill:#000000;fill-opacity:1;stroke:none"
       d="m 133.45286,684.97446 0,-88.58268 -70.866138,0 c 0,0 -2.14286,15.03375 0,46.46232 2.14286,31.42857 3.57143,42.12036 3.57143,42.12036 z"
       id="expression_TPM_Tausta_MS9"
       inkscape:connector-curvature="0"
       inkscape:label="#Tausta_2014.M.Section_9" />
    <path
       style="fill:#000000;fill-opacity:1;stroke:none"
       d="m 254.73632,588.97446 0,-88.58268 -70.86614,0 c 0,0 -2.14286,15.03375 0,46.46232 2.14286,31.42857 3.57143,42.12036 3.57143,42.12036 z"
       id="expression_TPM_Tausta_MS14"
       inkscape:connector-curvature="0"
       inkscape:label="#Tausta_2014.M.Section_14" />
    <path
       style="fill:#000000;fill-opacity:1;stroke:none"
       d="m 283.45286,474.97446 0,-88.58268 -70.86614,0 c 0,0 -2.14286,15.03375 0,46.46232 2.14286,31.42857 3.57143,42.12036 3.57143,42.12036 z"
       id="expression_TPM_Tausta_BSS14"
       inkscape:connector-curvature="0"
       inkscape:label="#Tausta_2014.BS.Section_14" />
    <path
       style="fill:#000000;fill-opacity:1;stroke:none"
       d="m 404.73632,711.97442 0,-88.58264 -70.86614,0 c 0,0 -2.14286,15.03375 0,46.46232 2.14286,31.42852 3.57143,42.12032 3.57143,42.12032 z"
       id="expression_TPM_Li_totalS9"
       inkscape:connector-curvature="0"
       inkscape:label="#Li_2010.total.Section_9" />
    <path
       style="fill:#000000;fill-opacity:1;stroke:none"
       d="m 422.45286,582.97444 0,-88.58264 -70.86614,0 c 0,0 -2.14286,15.03375 0,46.46232 2.14286,31.42852 3.57143,42.12032 3.57143,42.12032 z"
       id="expression_TPM_Li_totalS4"
       inkscape:connector-curvature="0"
       inkscape:label="#Li_2010.total.Section_4" />
    <path
       style="fill:#000000;fill-opacity:1;stroke:none"
       d="m 462.1694,463.69097 0,-88.58264 -70.86614,0 c 0,0 -2.14286,15.03375 0,46.46232 2.14286,31.42852 3.57143,42.12032 3.57143,42.12032 z"
       id="expression_TPM_Li_totalS14"
       inkscape:connector-curvature="0"
       inkscape:label="#Li_2010.total.Section_14" />
    <path
       style="fill:#000000;fill-opacity:1;stroke:none"
       d="m 301.55905,260.86782 0,-88.58267 c 0,0 -22.14285,22.1991 -35.43307,50.77053 -13.29021,28.57142 -17.71653,37.81214 -17.71653,37.81214 z"
       id="expression_TPM_Chang_M"
       inkscape:connector-curvature="0" />
    <path
       style="fill:#000000;fill-opacity:1;stroke:none"
       d="m 471.59055,263.86782 0,-88.58267 c 0,0 -22.14285,22.1991 -35.43307,50.77053 -13.29021,28.57142 -17.71653,37.81214 -17.71653,37.81214 z"
       id="expression_TPM_Chang_BS"
       inkscape:connector-curvature="0"
       inkscape:label="#Chang_2012.BS" />
  </g>
</svg>
