<?xml version="1.0" encoding="UTF-8" standalone="no"?>
<!-- Created with Inkscape (http://www.inkscape.org/) -->

<svg
   xmlns:dc="http://purl.org/dc/elements/1.1/"
   xmlns:cc="http://creativecommons.org/ns#"
   xmlns:rdf="http://www.w3.org/1999/02/22-rdf-syntax-ns#"
   xmlns:svg="http://www.w3.org/2000/svg"
   xmlns="http://www.w3.org/2000/svg"
   xmlns:sodipodi="http://sodipodi.sourceforge.net/DTD/sodipodi-0.dtd"
   xmlns:inkscape="http://www.inkscape.org/namespaces/inkscape"
   width="570.84009"
   height="449.04599"
   id="svg2"
   version="1.1"
   inkscape:version="0.48.3.1 r9886"
   sodipodi:docname="thumbnail_struct_Si.svg"
   inkscape:export-filename="/home/ali.denton/Dropbox/Libelle2/mammut/SmPubData/thumb_nail_exp/thumbnail_struct_Si.png"
   inkscape:export-xdpi="90"
   inkscape:export-ydpi="90">
  <defs
     id="defs4" />
  <sodipodi:namedview
     id="base"
     pagecolor="#ffffff"
     bordercolor="#666666"
     borderopacity="1.0"
     inkscape:pageopacity="0.0"
     inkscape:pageshadow="2"
     inkscape:zoom="0.98994948"
     inkscape:cx="359.46419"
     inkscape:cy="220.48236"
     inkscape:document-units="px"
     inkscape:current-layer="layer1"
     showgrid="true"
     objecttolerance="3"
     gridtolerance="3"
     guidetolerance="5"
     inkscape:window-width="1920"
     inkscape:window-height="1150"
     inkscape:window-x="0"
     inkscape:window-y="0"
     inkscape:window-maximized="1"
     fit-margin-top="0"
     fit-margin-left="0"
     fit-margin-right="0"
     fit-margin-bottom="0"
     showguides="true"
     inkscape:guide-bbox="true">
    <inkscape:grid
       type="xygrid"
       id="grid2987"
       empspacing="5"
       visible="true"
       enabled="true"
       snapvisiblegridlinesonly="true"
       units="mm"
       spacingx="5mm"
       spacingy="5mm"
       originx="-1.9642361mm"
       originy="-1.3509013mm" />
    <sodipodi:guide
       orientation="0,1"
       position="341.43156,1.0304449"
       id="guide3286" />
  </sodipodi:namedview>
  <metadata
     id="metadata7">
    <rdf:RDF>
      <cc:Work
         rdf:about="">
        <dc:format>image/svg+xml</dc:format>
        <dc:type
           rdf:resource="http://purl.org/dc/dcmitype/StillImage" />
        <dc:title />
      </cc:Work>
    </rdf:RDF>
  </metadata>
  <g
     inkscape:label="Layer 1"
     inkscape:groupmode="layer"
     id="layer1"
     transform="translate(-6.9598917,-598.52956)">
    <path
       style="fill:#FFFF6F;fill-opacity:1;stroke:none"
       d="m 446.29921,937.22958 c -7.83107,-3.59204 12.74713,12.21385 17.71654,32.54993 2.93602,12.01493 -4.89872,28.85329 -12.85714,35.43309 -10.14115,4.4745 9.47775,-34.7188 -19.90212,-63.86391 -13.43083,-14.28571 6.26847,33.43266 5.89762,42.99577 -0.71429,18.41954 -15.67669,30.19764 -23.61312,38.58464 -11.72228,12.3879 -45.79609,26.5201 -53.86493,21.1229 -17.71654,-11.8504 26.28796,-14.5157 40.18797,-30.2835 10.53444,-11.9499 15.46738,-24.11404 15.95724,-34.21483 0.61081,-12.5948 -3.89955,-29.15055 -9.30282,-23.93474 -16.44505,15.8745 -18.4101,67.35097 -28.30919,61.56317 -7.47953,-4.3732 2.60628,-62.98516 17.6479,-71.1391 10.32626,-5.59778 -4.71522,-10.18698 -11.81109,-3.03046 -7.22952,7.29132 -22.79401,33.24707 -26.32954,49.14489 -3.11245,13.99537 -39.59276,32.67157 -14.32844,0.74722 5.71429,-7.22065 22.68279,-49.27447 31.86164,-60.70304 9.17886,-11.42858 33.83016,-18.57143 44.7188,-17.14286 35.73646,-9.86825 75.33668,37.00422 74.18872,59.8884 -0.86305,17.20477 -7.83817,-2.92926 -25.94803,-22.88418 -5.4477,-6.00272 -11.5798,-11.29209 -21.91001,-14.83339 z"
       id="path3797"
       inkscape:connector-curvature="0"
       sodipodi:nodetypes="csccsssssssssssscssc" />
    <path
       style="fill:#FFFF5F;fill-opacity:1;stroke:none"
       d="m 402.77904,917.76012 3.13073,-56.60582 19.91756,-18.18274 10.24192,8.44344 0.12255,64.36569 z"
       id="path3799"
       inkscape:connector-curvature="0"
       sodipodi:nodetypes="cccccc" />
    <path
       style="fill:#FFFF4F;fill-opacity:1;stroke:none"
       d="m 393.14961,713.55719 c 0,12.06683 -5.71429,15.00747 0,61.34043 3.04064,35.43307 2.84618,38.63822 9.62943,68.64986 -3.73177,-0.42034 -15.03713,-34.93722 -32.00226,-42.5025 -22.56872,-10.0641 -113.07149,-78.63175 -110.76257,-61.58044 1.88134,13.89365 87.89628,119.66376 132.0414,124.01774 12.84501,1.26689 13.7289,10.69683 13.7289,10.69683 0,0 8.18439,16.83821 13.03554,9.90549 3.70223,-5.29083 -2.20112,-6.44201 -0.84986,-22.48831 10.40732,-10.2389 23.06582,0.81817 20.24192,-12.08296 7.60069,-14.96243 28.71433,-20.52667 36.11402,-34.64186 26.33038,-50.22626 114.87071,-174.70389 99.56026,-174.70389 -15.31045,0 -112.33204,90.95538 -145.30371,179.36791 5.73708,-20.98505 0,-32.22147 -7.72476,-58.37663 -13.45161,-45.54565 -27.70831,-59.66849 -27.70831,-47.60167 z"
       id="path3949"
       inkscape:connector-curvature="0"
       sodipodi:nodetypes="zccssscsccszcsz" />
    <path
       style="fill:#000000;stroke:#000000;stroke-width:4;stroke-miterlimit:4;stroke-opacity:1;stroke-dasharray:none"
       d="m 70.866142,601.4488 c -4.31386,4.52133 -14.78789,24.66964 -26.46875,49.78125 -13.29021,28.57142 -17.71875,37.8125 -17.71875,37.8125 -10.791125,28.10271 -17.6896447,49.28154 -17.7187503,88.59375 2.2926023,19.79583 5.6965023,89.56053 24.2767853,128.59375 15.45534,29.02392 15.563151,80.25312 17.723215,137.15625 l 19.90625,0 0.96875,0 19.90625,0 c -9.404274,-61.77156 -8.906993,-85.71166 8.580348,-125.72321 21.33268,-49.25689 26.90151,-110.2314 28.5625,-139.04894 -1.39298,-43.69986 -5.09292,-54.33885 -14.86161,-89.5716 0,0 -4.42854,-9.24108 -17.71875,-37.8125 -11.680848,-25.11161 -20.154878,-45.25992 -24.468738,-49.78125 -0.29613,-1.16056 -0.96875,-1.28906 -0.96875,0 z"
       id="path2989-4"
       inkscape:connector-curvature="0"
       sodipodi:nodetypes="csccccccccccscc" />
    <path
       style="fill:#FFFF5F;fill-opacity:1;stroke:#000000;stroke-width:4;stroke-linecap:butt;stroke-linejoin:miter;stroke-miterlimit:4;stroke-opacity:1;stroke-dasharray:none"
       d="m 47.718786,646.16758 45.138354,0.71429 18.57144,43.1496 -83.569188,0 z"
       id="path3878"
       inkscape:connector-curvature="0"
       sodipodi:nodetypes="ccccc" />
    <path
       style="fill:#FFFF57;fill-opacity:1;stroke:#000000;stroke-width:4;stroke-linecap:butt;stroke-linejoin:miter;stroke-miterlimit:4;stroke-opacity:1;stroke-dasharray:none"
       d="m 10.857143,789.21933 115.875137,-0.0315 -3.87514,42.88864 -107.714283,-0.31271 z"
       id="path3880"
       inkscape:connector-curvature="0"
       sodipodi:nodetypes="ccccc" />
    <path
       style="fill:#FFFF3F;fill-opacity:1;stroke:#000000;stroke-width:4;stroke-linecap:butt;stroke-linejoin:miter;stroke-miterlimit:4;stroke-opacity:1;stroke-dasharray:none"
       d="m 28.714285,894.77276 79.857145,-0.71429 -17.14286,44.0045 -47.995499,0 z"
       id="path3882"
       inkscape:connector-curvature="0"
       sodipodi:nodetypes="ccccc" />
    <path
       style="fill:#FFFF6F;fill-opacity:1;stroke:#000000;stroke-width:4;stroke-linecap:butt;stroke-linejoin:miter;stroke-miterlimit:4;stroke-opacity:1;stroke-dasharray:none"
       d="m 50,1002.5005 35.725534,-2.1429 2.857143,44.0046 -37.575928,0 z"
       id="path3884"
       inkscape:connector-curvature="0"
       sodipodi:nodetypes="ccccc" />
    <g
       id="g11524"
       transform="translate(-14,18)">
      <path
         transform="translate(-2.971284,-19.697206)"
         d="m 342.98567,946.04364 c 0,55.90726 -44.83467,101.22906 -100.14105,101.22906 -55.30638,0 -100.14105,-45.3218 -100.14105,-101.22906 0,-55.90729 44.83467,-101.2291 100.14105,-101.2291 55.30638,0 100.14105,45.32181 100.14105,101.2291 z"
         sodipodi:ry="101.2291"
         sodipodi:rx="100.14105"
         sodipodi:cy="946.04364"
         sodipodi:cx="242.84462"
         id="path11497"
         style="color:#000000;fill:#000000;fill-opacity:1;fill-rule:nonzero;stroke:#000000;stroke-width:4;stroke-linecap:butt;stroke-linejoin:miter;stroke-miterlimit:4;stroke-opacity:1;stroke-dasharray:none;stroke-dashoffset:0;marker:none;visibility:visible;display:inline;overflow:visible;enable-background:accumulate"
         sodipodi:type="arc" />
      <path
         sodipodi:nodetypes="csssc"
         inkscape:connector-curvature="0"
         id="path11461"
         d="m 233.76577,916.69082 c -7.49142,-11.65967 -19.48005,-11.7977 -15.19434,-23.77746 4.28571,-11.97975 4.71201,-22.95405 19.86362,-14.68607 14.60904,7.9719 13.88216,22.70632 9.59645,32.40261 -4.28572,9.69629 -14.26573,6.06092 -14.26573,6.06092 z"
         style="fill:#FFFF77;fill-opacity:1;stroke:#000000;stroke-width:4;stroke-linecap:butt;stroke-linejoin:miter;stroke-miterlimit:4;stroke-opacity:1;stroke-dasharray:none" />
      <path
         sodipodi:nodetypes="csssc"
         inkscape:connector-curvature="0"
         id="path11463"
         d="m 272.43872,932.38704 c -6.69069,-4.04061 -11.53743,-14.64671 -6.69069,-21.75714 2.03918,-2.99159 5.79858,-14.93606 15.19116,-6.06092 9.39257,8.87514 14.5861,34.35919 8.05066,37.21634 -6.53543,2.85714 -16.55113,-9.39828 -16.55113,-9.39828 z"
         style="fill:#FFFF77;fill-opacity:1;stroke:#000000;stroke-width:4;stroke-linecap:butt;stroke-linejoin:miter;stroke-miterlimit:4;stroke-opacity:1;stroke-dasharray:none" />
      <path
         sodipodi:nodetypes="csssc"
         inkscape:connector-curvature="0"
         id="path11465"
         d="m 248.0315,950.93361 c 10.53993,-12.85714 15.71858,-27.35311 22.04029,-19.05165 6.32171,8.30147 24.0002,11.92004 13.39278,21.90879 -10.60743,9.98876 -6.11354,14.02937 -19.51062,14.02937 -13.39707,0 -15.92245,-16.88651 -15.92245,-16.88651 z"
         style="fill:#FFFF77;fill-opacity:1;stroke:#000000;stroke-width:4;stroke-linecap:butt;stroke-linejoin:miter;stroke-miterlimit:4;stroke-opacity:1;stroke-dasharray:none" />
      <path
         sodipodi:nodetypes="cssssscc"
         inkscape:connector-curvature="0"
         id="path11467"
         d="m 248.0315,956.6479 c -6.60293,-10.58493 -13.67601,-2.30094 -17.71654,-10.58493 -2.72001,-5.57662 -6.49317,-10.66755 -9.57069,-7.90042 -4.64658,4.17794 -8.78177,0.95191 -10.16615,7.90042 -3.46168,17.37506 -0.57806,35.47274 12.27902,35.43307 6.17208,-0.019 11.78726,-4.70322 20.14545,-3.80236 7.7059,0.83056 9.85455,-13.91417 9.85455,-13.91417 z"
         style="fill:#FFFF77;fill-opacity:1;stroke:#000000;stroke-width:4;stroke-linecap:butt;stroke-linejoin:miter;stroke-miterlimit:4;stroke-opacity:1;stroke-dasharray:none" />
      <path
         sodipodi:nodetypes="cssssc"
         inkscape:connector-curvature="0"
         id="path11469"
         d="m 225.71429,919.50504 c -2.85715,15.71429 -8.66253,22.9438 -19.49492,22.9438 -10.8324,0 -11.33748,-14.06866 -11.33748,-22.9438 0,-8.87514 3.92229,-33.82356 14.18101,-24.12727 4.55622,4.30644 15.4119,10.75686 18.2216,15.25213 3.51657,5.62618 -1.57021,8.87514 -1.57021,8.87514 z"
         style="fill:#FFFF77;fill-opacity:1;stroke:#000000;stroke-width:4;stroke-linecap:butt;stroke-linejoin:miter;stroke-miterlimit:4;stroke-opacity:1;stroke-dasharray:none" />
      <path
         sodipodi:nodetypes="csssc"
         inkscape:connector-curvature="0"
         id="path11471"
         d="m 270.29372,892.91336 c -17.10481,-16.2013 -9.07658,-27.44152 1.97169,-43.58164 4.88651,-7.13856 28.91569,-0.94996 28.91569,8.14857 -1e-5,25.33803 -15.27699,30.38231 -17.71653,40.48383 -2.8255,11.69966 -13.17085,-5.05076 -13.17085,-5.05076 z"
         style="fill:#FFFF7F;fill-opacity:1;stroke:#000000;stroke-width:4;stroke-linecap:butt;stroke-linejoin:miter;stroke-miterlimit:4;stroke-opacity:1;stroke-dasharray:none" />
      <path
         sodipodi:nodetypes="cssssc"
         inkscape:connector-curvature="0"
         id="path11473"
         d="m 290,918.07647 c -6.53543,-14.28572 -7.73248,-19.41312 0.75019,-31.42857 9.3216,-13.20378 15.13129,-25.48406 23.17403,-18.3412 8.04274,7.14286 30.7327,37.73377 22.68995,42.3232 -2.02606,1.15613 -7.50468,12.80893 -13.81599,10.69676 C 309.04646,916.72446 290,918.07647 290,918.07647 z"
         style="fill:#FFFF7F;fill-opacity:1;stroke:#000000;stroke-width:4;stroke-linecap:butt;stroke-linejoin:miter;stroke-miterlimit:4;stroke-opacity:1;stroke-dasharray:none" />
      <path
         sodipodi:nodetypes="cscsscc"
         inkscape:connector-curvature="0"
         id="path11475"
         d="m 291.84699,942.02236 c 1.42858,-17.71654 -8.38242,-24.95604 13.8673,-23.94589 13.16978,0.59792 25.34404,7.2395 25.34404,7.2395 0,0 -4.69163,21.33193 -12.16069,32.7605 -7.46907,11.42857 -3.83674,16.28796 -12.1607,5.70304 -8.32396,-10.58493 -17.71653,-10.82559 -17.71653,-10.82559 z"
         style="fill:#FFFF7F;fill-opacity:1;stroke:#000000;stroke-width:4;stroke-linecap:butt;stroke-linejoin:miter;stroke-miterlimit:4;stroke-opacity:1;stroke-dasharray:none" />
      <path
         inkscape:connector-curvature="0"
         id="path11477"
         d="m 274.28572,968.07647 c 9.17885,-4.29696 8.57142,-18.56018 20,-11.42857 11.42857,7.13161 15.38807,5.71428 20,20 4.61192,14.28571 -0.49494,22.56468 -13.10462,22.56468 -12.60967,0 -26.89538,-31.13611 -26.89538,-31.13611 z"
         style="fill:#FFFF7F;fill-opacity:1;stroke:#000000;stroke-width:4;stroke-linecap:butt;stroke-linejoin:miter;stroke-miterlimit:4;stroke-opacity:1;stroke-dasharray:none" />
      <path
         sodipodi:nodetypes="csssc"
         inkscape:connector-curvature="0"
         id="path11479"
         d="m 273.82925,970.51519 c -12.89089,-1.42857 -24.28252,-13.01241 -24.28252,10.98085 0,23.99326 6.23505,35.43306 16.2013,35.43306 9.96626,0 26.18562,-13.1384 24.75705,-17.71652 -1.42857,-4.57822 -16.67583,-28.69739 -16.67583,-28.69739 z"
         style="fill:#FFFF7F;fill-opacity:1;stroke:#000000;stroke-width:4;stroke-linecap:butt;stroke-linejoin:miter;stroke-miterlimit:4;stroke-opacity:1;stroke-dasharray:none" />
      <path
         sodipodi:nodetypes="csssc"
         inkscape:connector-curvature="0"
         id="path11481"
         d="m 248.0315,977.96051 c -20,0 -35.43307,3.53553 -35.43307,21.25207 0,17.71652 6.60292,27.43532 17.71653,26.00672 11.11361,-1.4285 26.9315,-3.0698 21.75715,-14.7908 -5.17436,-11.721 -4.04061,-32.46799 -4.04061,-32.46799 z"
         style="fill:#FFFF7F;fill-opacity:1;stroke:#000000;stroke-width:4;stroke-linecap:butt;stroke-linejoin:miter;stroke-miterlimit:4;stroke-opacity:1;stroke-dasharray:none" />
      <path
         sodipodi:nodetypes="csscscc"
         inkscape:connector-curvature="0"
         id="path11483"
         d="m 212.59843,973.79075 c -11.16986,-15.71428 12.82107,-10.01124 -22.67022,-4.96048 -13.93061,1.98247 -21.37928,3.53191 -17.07107,20.67477 4.30821,17.14286 22.02475,27.42406 22.02475,27.42406 0,0 18.9814,2.7904 17.71654,-7.4241 -2.52538,-20.39395 5.05076,-28.00896 5.05076,-28.00896 z"
         style="fill:#FFFF7F;fill-opacity:1;stroke:#000000;stroke-width:4;stroke-linecap:butt;stroke-linejoin:miter;stroke-miterlimit:4;stroke-opacity:1;stroke-dasharray:none" />
      <path
         sodipodi:nodetypes="cssssssc"
         inkscape:connector-curvature="0"
         id="path11485"
         d="m 159.44882,963.77951 c 0,-12.8459 -5.1856,-31.41733 6.26547,-29.98876 11.45106,1.42858 18.3352,2.0135 29.1676,7.14286 10.8324,5.12936 14.78635,-2.34081 14.78635,10.50508 0,12.8459 1.82768,13.4115 -11.02502,15.37128 -12.82103,1.95494 -2.86477,-10e-6 -14.94924,1.71465 -14.12178,2.00373 -8.85708,17.81957 -16.55112,12.97142 -7.69404,-4.84814 -7.69404,-17.71653 -7.69404,-17.71653 z"
         style="fill:#FFFF7F;fill-opacity:1;stroke:#000000;stroke-width:4;stroke-linecap:butt;stroke-linejoin:miter;stroke-miterlimit:4;stroke-opacity:1;stroke-dasharray:none" />
      <path
         sodipodi:nodetypes="csssc"
         inkscape:connector-curvature="0"
         id="path11487"
         d="m 194.88189,910.6299 c -10.59618,-17.71654 -27.41282,-28.59393 -35.43307,-17.71654 -8.02025,10.87739 -8.66414,37.45338 0,37.45338 5.25532,0 38.1506,14.23931 35.43307,3.92909 -3.96438,-15.04077 0,-23.66593 0,-23.66593 z"
         style="fill:#FFFF7F;fill-opacity:1;stroke:#000000;stroke-width:4;stroke-linecap:butt;stroke-linejoin:miter;stroke-miterlimit:4;stroke-opacity:1;stroke-dasharray:none" />
      <path
         sodipodi:nodetypes="cssssssc"
         inkscape:connector-curvature="0"
         id="path11489"
         d="m 212.59843,897.45905 c -6.7975,-8.5863 -15.69623,-2.51288 -15.69623,8.61198 0,11.12486 -13.49387,-19.42313 -25.47363,-22.28028 -11.97975,-2.85714 -16.38336,-18.22924 -4.40361,-18.22924 11.97975,0 15.23601,-18.31744 21.54647,-13.19933 6.31046,5.11811 13.11586,0.0225 18.57143,11.42857 2.74772,5.74471 9.1623,16.76864 9.83922,23.78983 0.66711,6.91933 -4.38365,9.87847 -4.38365,9.87847 z"
         style="fill:#FFFF7F;fill-opacity:1;stroke:#000000;stroke-width:4;stroke-linecap:butt;stroke-linejoin:miter;stroke-miterlimit:4;stroke-opacity:1;stroke-dasharray:none" />
      <path
         sodipodi:nodetypes="cssscc"
         inkscape:connector-curvature="0"
         id="path11491"
         d="m 227.2845,875.19683 c -14.68607,17.71653 -14.87301,-5.45557 -21.75714,-17.71654 -6.88414,-12.26097 9.87197,-22.26097 17.32978,-25.11811 7.45782,-2.85714 22.85715,-10.31496 20,7.40158 -2.85714,17.71653 -0.41842,39.92946 -0.41842,39.92946 z"
         style="fill:#FFFF7F;fill-opacity:1;stroke:#000000;stroke-width:4;stroke-linecap:butt;stroke-linejoin:miter;stroke-miterlimit:4;stroke-opacity:1;stroke-dasharray:none" />
      <path
         sodipodi:nodetypes="csssccc"
         inkscape:connector-curvature="0"
         id="path11493"
         d="m 242.47566,879.74252 c 0,-9.97751 -4.9841,-44.5232 5.55584,-44.5232 10.53993,0 17.68279,-7.40157 23.39707,-1.42857 5.71429,5.97301 2.92463,13.09337 -5.68054,23.68954 -8.60517,10.59618 -6.49821,17.71654 -6.49821,17.71654 l -14.21878,6.70437 z"
         style="fill:#FFFF7F;fill-opacity:1;stroke:#000000;stroke-width:4;stroke-linecap:butt;stroke-linejoin:miter;stroke-miterlimit:4;stroke-opacity:1;stroke-dasharray:none" />
      <path
         sodipodi:nodetypes="csssssc"
         inkscape:connector-curvature="0"
         id="path11495"
         d="m 257.08382,913.97128 c -5.55584,-3.34138 -9.59645,4.04061 -6.56599,-12.6269 3.03046,-16.66752 -2.48633,-15.15229 -2.48633,-17.1726 0,-2.0203 5.51679,-7.57614 8.04217,-6.06091 2.52538,1.51523 20.70813,19.69797 17.67767,21.71828 -3.05945,2.03964 -6.56599,7.96444 -9.59645,10.80075 -3.03046,2.83631 -7.07107,3.34138 -7.07107,3.34138 z"
         style="fill:#FFFF77;fill-opacity:1;stroke:#000000;stroke-width:4;stroke-linecap:butt;stroke-linejoin:miter;stroke-miterlimit:4;stroke-opacity:1;stroke-dasharray:none" />
    </g>
    <path
       style="fill:none;stroke:#000000;stroke-width:4;stroke-miterlimit:4;stroke-opacity:1;stroke-dasharray:none"
       d="m 574.03396,638.59865 c -15.31045,0 -112.34083,90.96247 -145.3125,179.375 5.73708,-20.98505 0.006,-32.21984 -7.71875,-58.375 -13.45161,-45.54565 -27.71875,-59.66057 -27.71875,-47.59375 0,12.06683 -5.71429,14.97954 0,61.3125 3.04064,35.43307 2.84175,38.64461 9.625,68.65625 -3.73177,-0.42034 -15.03487,-34.93472 -32,-42.5 -22.56872,-10.0641 -113.05892,-78.61381 -110.75,-61.5625 1.88134,13.89365 87.88613,119.64602 132.03125,124 9.19753,0.90714 12.251,5.99354 13.25,8.8125 l -2.5,44.75 c -10.50984,2.80059 -21.9428,8.15918 -27.5625,15.15625 -9.17885,11.42857 -26.12946,53.4981 -31.84375,60.71875 -25.26432,31.92435 11.20005,13.24535 14.3125,-0.75 3.53553,-15.89782 19.11423,-41.86493 26.34375,-49.15625 7.09587,-7.15652 22.13876,-2.56653 11.8125,3.03125 -15.04162,8.15394 -25.13578,66.78305 -17.65625,71.15625 9.89909,5.7878 11.86745,-45.688 28.3125,-61.5625 5.40327,-5.21581 9.92331,11.31145 9.3125,23.90625 -0.48986,10.10079 -5.43431,22.26885 -15.96875,34.21875 -13.90001,15.7678 -57.90404,18.4308 -40.1875,30.2813 8.06884,5.3971 42.15272,-8.7372 53.875,-21.1251 7.93643,-8.387 22.87946,-20.1429 23.59375,-38.56245 0.37085,-9.56311 -19.30583,-57.28571 -5.875,-43 29.37987,29.14511 9.7651,68.34945 19.90625,63.87495 7.95842,-6.57977 15.77977,-23.42252 12.84375,-35.43745 -4.96941,-20.33608 -25.54982,-36.15454 -17.71875,-32.5625 10.33021,3.5413 16.45855,8.84103 21.90625,14.84375 18.10986,19.95492 25.07445,40.07977 25.9375,22.875 0.97524,-19.44099 -27.44824,-56.18056 -57.9375,-60.75 l -0.125,-57.96875 c 2.15839,-0.54922 3.13921,-2.08529 2.125,-6.71875 7.60069,-14.96243 28.72531,-20.50981 36.125,-34.625 26.33038,-50.22626 114.87295,-174.71875 99.5625,-174.71875 z"
       id="path3797-7"
       inkscape:connector-curvature="0" />
  </g>
</svg>
