<?xml version="1.0" encoding="UTF-8" standalone="no"?>
<!-- Created with Inkscape (http://www.inkscape.org/) -->

<svg
   xmlns:dc="http://purl.org/dc/elements/1.1/"
   xmlns:cc="http://creativecommons.org/ns#"
   xmlns:rdf="http://www.w3.org/1999/02/22-rdf-syntax-ns#"
   xmlns:svg="http://www.w3.org/2000/svg"
   xmlns="http://www.w3.org/2000/svg"
   xmlns:sodipodi="http://sodipodi.sourceforge.net/DTD/sodipodi-0.dtd"
   xmlns:inkscape="http://www.inkscape.org/namespaces/inkscape"
   width="345.90784"
   height="446.92203"
   id="svg2"
   version="1.1"
   inkscape:version="0.48.3.1 r9886"
   sodipodi:docname="thumbnail_struct_Zm.svg"
   inkscape:export-xdpi="90"
   inkscape:export-ydpi="90">
  <defs
     id="defs4" />
  <sodipodi:namedview
     id="base"
     pagecolor="#ffffff"
     bordercolor="#666666"
     borderopacity="1.0"
     inkscape:pageopacity="0.0"
     inkscape:pageshadow="2"
     inkscape:zoom="2"
     inkscape:cx="-18.043961"
     inkscape:cy="252.6996"
     inkscape:document-units="px"
     inkscape:current-layer="layer1"
     showgrid="true"
     objecttolerance="3"
     gridtolerance="3"
     guidetolerance="5"
     inkscape:window-width="1920"
     inkscape:window-height="1150"
     inkscape:window-x="0"
     inkscape:window-y="0"
     inkscape:window-maximized="1"
     fit-margin-top="0"
     fit-margin-left="0"
     fit-margin-right="0"
     fit-margin-bottom="0">
    <inkscape:grid
       type="xygrid"
       id="grid2987"
       empspacing="5"
       visible="true"
       enabled="true"
       snapvisiblegridlinesonly="true"
       units="mm"
       spacingx="5mm"
       spacingy="5mm"
       originx="-1.6929537mm"
       originy="-1.1283218mm" />
  </sodipodi:namedview>
  <metadata
     id="metadata7">
    <rdf:RDF>
      <cc:Work
         rdf:about="">
        <dc:format>image/svg+xml</dc:format>
        <dc:type
           rdf:resource="http://purl.org/dc/dcmitype/StillImage" />
        <dc:title />
      </cc:Work>
    </rdf:RDF>
  </metadata>
  <g
     inkscape:label="Layer 1"
     inkscape:groupmode="layer"
     id="layer1"
     transform="translate(-5.9986513,-601.44217)">
    <path
       style="fill:#000000;fill-opacity:1;stroke:none"
       d="m 78.866142,692.03147 0,-88.58267 c 0,0 -22.142857,22.1991 -35.433071,50.77053 -13.290214,28.57142 -17.716536,37.81214 -17.716536,37.81214 z"
       id="M_S1"
       inkscape:connector-curvature="0" />
    <path
       style="fill:#000000;fill-opacity:1;stroke:none"
       d="m 78.866142,692.03147 0,88.58268 -70.866142,0 c 0,0 4.285714,-26.39482 7.857143,-46.39482 3.571428,-20 9.859392,-42.18786 9.859392,-42.18786 z"
       id="M_S2"
       inkscape:connector-curvature="0" />
    <path
       style="fill:#000000;fill-opacity:1;stroke:none"
       d="m 78.866142,869.19683 0,-88.58268 -70.866142,0 c 0,0 -2.1428571,15.03375 0,46.46232 2.142857,31.42857 3.571429,42.12036 3.571429,42.12036 z"
       id="M_S3"
       inkscape:connector-curvature="0" />
    <path
       style="fill:#000000;fill-opacity:1;stroke:none"
       d="m 78.866142,869.19683 0,88.58268 -35.433071,0 c 0,0 -14.0045,-14.82565 -21.861642,-42.8459 -7.857143,-28.02025 -10,-45.73678 -10,-45.73678 z"
       id="M_S4"
       inkscape:connector-curvature="0" />
    <path
       style="fill:#000000;fill-opacity:1;stroke:none"
       d="m 78.866142,1046.3622 0,-88.58269 -35.433071,0 10.281215,10.72553 L 58,1046.3622 z"
       id="M_S5"
       inkscape:connector-curvature="0" />
    <path
       style="fill:#000000;fill-opacity:1;stroke:none"
       d="m 77.913761,692.03147 0,-88.58267 c 0,0 22.142849,22.1991 35.433069,50.77053 13.29021,28.57142 17.71653,37.81214 17.71653,37.81214 z"
       id="BS_S1"
       inkscape:connector-curvature="0" />
    <path
       style="fill:#000000;fill-opacity:1;stroke:none"
       d="m 77.913761,692.03147 0,88.58268 70.866139,0 c 0,0 -4.28571,-26.39482 -7.85714,-46.39482 -3.57143,-20 -9.8594,-42.18786 -9.8594,-42.18786 z"
       id="BS_S2"
       inkscape:connector-curvature="0" />
    <path
       style="fill:#000000;fill-opacity:1;stroke:none"
       d="m 77.913761,869.19683 0,-88.58268 70.866139,0 c 0,0 2.14286,15.03375 0,46.46232 -2.14286,31.42857 -3.57143,42.12036 -3.57143,42.12036 z"
       id="BS_S3"
       inkscape:connector-curvature="0" />
    <path
       style="fill:#000000;fill-opacity:1;stroke:none"
       d="m 77.913761,869.19683 0,88.58268 35.433069,0 c 0,0 14.0045,-14.82565 21.86164,-42.8459 7.85714,-28.02025 10,-45.73678 10,-45.73678 z"
       id="BS_S4"
       inkscape:connector-curvature="0" />
    <path
       style="fill:#000000;fill-opacity:1;stroke:none"
       d="m 77.913761,1046.3622 0,-88.58269 35.433069,0 -10.28122,10.72553 -4.285709,77.85716 z"
       id="BS_S5"
       inkscape:connector-curvature="0" />
    <path
       style="fill:#000000;fill-opacity:1;stroke:none"
       d="m 234.74129,911.55847 c 0,0 -19.57329,6.95792 -28.48457,17.16121 -9.39487,10.75699 -31.9258,38.85308 -34.1092,56.30943 -1.69197,13.73609 2.58478,55.15199 9.87723,53.89999 16.29825,-2.1779 1.26574,-18.3713 3.1406,-43.1911 1.40132,-18.55112 20.82549,-50.93572 22.846,-37.95849 0.68903,4.42548 -14.61101,34.15637 -5.47819,35.43307 18.06527,2.52542 17.81077,-59.64527 27.90012,-62.47259 15.87467,-4.44854 -0.26441,17.32298 -5.38252,35.03952 -5.11811,17.71653 0.24637,37.62329 0.24637,53.33759 0,15.7142 -18.46924,26.6737 -5.29713,26.6737 13.1721,0 22.71779,-14.7335 22.71779,-27.8719 0,-13.1383 -4.80989,-28.85258 -0.52417,-44.56687 4.28571,-15.71428 -1.15683,-15.95275 10.97848,-28.86049 13.43083,-14.28571 5.02848,20.30753 5.39933,29.87064 0.71429,18.41957 10.09403,35.74032 18.03046,44.12732 11.72228,12.3879 36.51037,25.9774 44.57921,20.5802 17.71654,-11.8504 -17.71653,-12.3728 -31.61654,-28.1406 -10.53444,-11.9499 -14.75309,-26.97121 -15.24295,-37.072 -0.61081,-12.5948 -0.38617,-21.2934 5.0171,-16.07759 16.44505,15.8745 19.83867,45.92239 29.73776,40.13459 7.47953,-4.37317 -16.89199,-59.41373 -31.93361,-67.56767 -10.32626,-5.59778 12.57236,0.52731 19.66823,7.68383 7.22952,7.29132 19.82433,18.96136 23.35986,34.85918 3.11245,13.99541 18.72669,47.17326 18.72669,6.4615 0,-11.50636 -24.11136,-40.70304 -33.29021,-52.13161 -9.17886,-11.42858 -33.83016,-18.57143 -44.71879,-17.14286 -10.88864,1.42857 -26.14735,1.482 -26.14735,1.482 z"
       id="Root"
       inkscape:connector-curvature="0"
       sodipodi:nodetypes="csccsssssssssssssssssssssssc" />
    <path
       style="fill:#000000;fill-opacity:1;stroke:none"
       d="m 232.59843,912.77784 11.70216,-83.03439 3.48899,-18.18274 20.24192,10.5863 -2.02031,88.6514 z"
       id="Stem"
       inkscape:connector-curvature="0"
       sodipodi:nodetypes="cccccc" />
    <path
       style="fill:#000000;fill-opacity:1;stroke:none"
       d="m 205.89545,610.00349 c 0,0 -6.71889,71.12809 -6.71889,117.46105 0,46.33295 22.2654,88.57318 27.97969,100.31671 0.2033,0.4178 5.21047,10.40944 5.44218,10.78395 -3.73177,-0.42034 -10.75141,-8.11862 -17.71654,-7.11247 -24.45713,3.53296 -41.87237,7.84993 -40.04829,12.0441 5.59168,12.85714 34.32486,12.79205 47.0414,15.00317 12.71654,2.21112 13.7289,10.69683 13.7289,10.69683 0,0 8.18439,16.83821 13.03554,9.90549 3.70223,-5.29083 -2.20112,-6.44201 -0.84986,-22.48831 10.40732,-10.2389 23.06582,0.81817 20.24192,-12.08296 7.60069,-14.96243 15.85719,-18.38381 23.25688,-32.499 26.33038,-50.22626 57.53855,-70.68466 57.53855,-70.68466 0,0 -55.94385,-28.06385 -88.91552,60.34868 5.73708,-20.98505 -4.09676,-63.65004 -4.94838,-91.94806 -1.42857,-47.46906 -49.06758,-99.74452 -49.06758,-99.74452 z"
       id="Husk"
       inkscape:connector-curvature="0"
       sodipodi:nodetypes="csscssscsccsccsc" />
    <path
       style="fill:none;stroke:#FFFFFF;stroke-width:4;stroke-miterlimit:4;stroke-opacity:1;stroke-dasharray:none"
       d="m 78.857283,604.42665 c -4.31386,4.52133 -22.78789,24.66964 -34.46875,49.78125 -13.29021,28.57142 -17.71875,37.8125 -17.71875,37.8125 0,0 -6.30357,22.1875 -9.875,42.1875 -3.57142,20 -7.8437495,46.40625 -7.8437495,46.40625 0,0 -2.14286,15.04018 0,46.46875 2.1428595,31.42857 3.5624995,42.125 3.5624995,42.125 0,0 2.14286,17.6985 10,45.71875 7.85714,28.02025 21.875,42.84375 21.875,42.84375 l 10.28125,10.71875 4.28125,77.87505 19.90625,0 0.96875,0 19.90625,0 4.281247,-77.87505 10.28125,-10.71875 c 0,0 14.01786,-14.8235 21.875,-42.84375 7.85714,-28.02025 10,-45.71875 10,-45.71875 0,0 1.41964,-10.69643 3.5625,-42.125 2.14286,-31.42857 0,-46.46875 0,-46.46875 0,0 -4.27232,-26.40625 -7.84375,-46.40625 -3.57143,-20 -9.875,-42.1875 -9.875,-42.1875 0,0 -4.42854,-9.24108 -17.71875,-37.8125 -11.68086,-25.11161 -30.154887,-45.25992 -34.468747,-49.78125 -0.29613,-1.16056 -0.96875,-1.28906 -0.96875,0 z"
       id="Edge_M"
       inkscape:connector-curvature="0"
       sodipodi:nodetypes="cscscscsccccccccscscscscc" />
    <text
       xml:space="preserve"
       style="font-size:48px;font-style:normal;font-variant:normal;font-weight:bold;font-stretch:normal;text-align:start;text-anchor:start;color:#000000;fill:#000000;fill-opacity:1;stroke:none;stroke-width:1;marker:none;visibility:visible;display:inline;overflow:visible;enable-background:accumulate;font-family:Arial;-inkscape-font-specification:Arial"
       x="23.071068"
       y="841.84497"
       id="text3887"><tspan
         sodipodi:role="line"
         id="tspan3889"
         x="23.071068"
         y="841.84497">M</tspan></text>
    <path
       style="fill:none;stroke:#FFFFFF;stroke-width:4;stroke-miterlimit:4;stroke-opacity:1;stroke-dasharray:none"
       d="m 78.866142,603.4488 c -0.816751,0.4511 -0.0089,88.5716 -0.0089,88.5716 l 0,88.59375 0,88.5625 0,88.59375 0,88.5938 20.875,0 4.281248,-77.87505 10.28125,-10.71875 c 0,0 13.98661,-14.82355 21.84375,-42.84375 7.85714,-28.0203 10,-45.75 10,-45.75 0,0 1.45089,-10.69644 3.59375,-42.125 2.14286,-31.42857 0,-46.4375 0,-46.4375 0,0 -4.30357,-26.40625 -7.875,-46.40625 -3.57143,-20 -9.84375,-42.1875 -9.84375,-42.1875 0,0 -4.42854,-9.24108 -17.71875,-37.8125 -13.29018,-28.57143 -34.611847,-51.2102 -35.428598,-50.7591 z"
       id="Edge_BS"
       inkscape:connector-curvature="0"
       sodipodi:nodetypes="zccccccccscscscsz" />
    <text
       xml:space="preserve"
       style="font-size:56px;font-style:normal;font-variant:normal;font-weight:bold;font-stretch:normal;text-align:start;text-anchor:start;color:#000000;fill:#000000;fill-opacity:1;stroke:none;stroke-width:4;marker:none;visibility:visible;display:inline;overflow:visible;enable-background:accumulate;font-family:Arial;-inkscape-font-specification:Arial"
       x="82.751289"
       y="841.76373"
       id="text3943"><tspan
         sodipodi:role="line"
         id="tspan3945"
         x="82.751289"
         y="841.76373"
         style="font-size:48px;fill:#000000">BS</tspan></text>
    <path
       style="fill:none;stroke:#FFFFFF;stroke-width:4;stroke-miterlimit:4;stroke-opacity:1;stroke-dasharray:none"
       d="m 206.969,609.99801 c 0,0 -6.71875,71.13579 -6.71875,117.46875 0,46.33295 22.28571,88.56897 28,100.3125 0.2033,0.4178 5.20579,10.40674 5.4375,10.78125 -3.73177,-0.42034 -10.75362,-8.13115 -17.71875,-7.125 -24.45713,3.53296 -41.88658,7.86833 -40.0625,12.0625 5.59168,12.85714 34.34596,12.78888 47.0625,15 12.71654,2.21112 13.71875,10.6875 13.71875,10.6875 0,0 1.00761,2.07605 2.5,4.4375 l -5.4375,38.75 c -5.14424,2.03484 -19.19016,8.08143 -26.40625,16.34375 -9.39487,10.75699 -31.9416,38.85615 -34.125,56.3125 -1.69197,13.73604 2.58255,55.15824 9.875,53.90624 16.29825,-2.1779 1.28139,-18.3677 3.15625,-43.1875 1.40132,-18.55111 20.82324,-50.94597 22.84375,-37.96874 0.68903,4.42548 -14.60157,34.1608 -5.46875,35.4375 18.06527,2.52544 17.8169,-59.64143 27.90625,-62.46875 15.87467,-4.44854 -0.28814,17.31471 -5.40625,35.03125 -5.11811,17.71653 0.25,37.62944 0.25,53.34374 0,15.7142 -18.45336,26.6562 -5.28125,26.6562 13.1721,0 22.71875,-14.7366 22.71875,-27.875 0,-13.1382 -4.81697,-28.84815 -0.53125,-44.56244 4.28571,-15.71428 -1.16656,-15.93601 10.96875,-28.84375 13.43083,-14.28571 5.0354,20.31189 5.40625,29.875 0.71429,18.41957 10.09482,35.73799 18.03125,44.12499 11.72228,12.3879 36.49366,25.9597 44.5625,20.5625 17.71654,-11.8504 -17.69374,-12.3572 -31.59375,-28.125 -10.53444,-11.9499 -14.76014,-26.99295 -15.25,-37.09374 -0.61081,-12.5948 -0.40327,-21.27831 5,-16.0625 16.44505,15.8745 19.85091,45.91284 29.75,40.12494 7.47953,-4.37311 -16.89588,-59.4085 -31.9375,-67.56244 -10.32626,-5.59778 12.59163,0.53098 19.6875,7.6875 7.22952,7.29132 19.80822,18.94593 23.34375,34.84375 3.11245,13.99541 18.71875,47.18049 18.71875,6.46875 0,-11.50636 -24.1024,-40.69643 -33.28125,-52.125 -7.93156,-9.87557 -27.38789,-16.53987 -39.5625,-17.25 l 1.34375,-59.46875 c 1.04299,-0.9118 1.3892,-2.62024 0.65625,-5.96875 7.60069,-14.96243 15.85031,-18.38481 23.25,-32.5 26.33038,-50.22626 57.53125,-70.6875 57.53125,-70.6875 0,0 -55.93458,-28.06878 -88.90625,60.34375 5.73708,-20.98505 -4.11713,-63.63948 -4.96875,-91.9375 -1.42857,-47.46906 -49.0625,-99.75 -49.0625,-99.75 z"
       id="Edge_Plant"
       inkscape:connector-curvature="0" />
  </g>
</svg>
